<svg xmlns="http://www.w3.org/2000/svg" width="64" height="64" shape-rendering="crispEdges">
  <!-- 城市废墟 · 路障 · 2×2格(64×64px) -->
  <!-- 路障底座 -->
  <rect x="4" y="20" width="56" height="36" fill="#546E7A"/>
  <!-- 铁丝网框架 -->
  <rect x="4" y="4" width="56" height="16" fill="#37474F"/>
  <rect x="6" y="6" width="52" height="12" fill="#455A64"/>
  <!-- 铁丝网格 -->
  <rect x="8" y="6" width="1" height="12" fill="#546E7A"/>
  <rect x="16" y="6" width="1" height="12" fill="#546E7A"/>
  <rect x="24" y="6" width="1" height="12" fill="#546E7A"/>
  <rect x="32" y="6" width="1" height="12" fill="#546E7A"/>
  <rect x="40" y="6" width="1" height="12" fill="#546E7A"/>
  <rect x="48" y="6" width="1" height="12" fill="#546E7A"/>
  <rect x="6" y="8" width="52" height="1" fill="#546E7A"/>
  <rect x="6" y="12" width="52" height="1" fill="#546E7A"/>
  <rect x="6" y="16" width="52" height="1" fill="#546E7A"/>
  <!-- 立柱 -->
  <rect x="4" y="4" width="4" height="52" fill="#607D8B"/>
  <rect x="56" y="4" width="4" height="52" fill="#607D8B"/>
  <!-- 警示条纹 -->
  <rect x="8" y="22" width="48" height="4" fill="#FFC107"/>
  <rect x="12" y="22" width="4" height="4" fill="#212121"/>
  <rect x="20" y="22" width="4" height="4" fill="#212121"/>
  <rect x="28" y="22" width="4" height="4" fill="#212121"/>
  <rect x="36" y="22" width="4" height="4" fill="#212121"/>
  <rect x="44" y="22" width="4" height="4" fill="#212121"/>
  <!-- 底座加重 -->
  <rect x="2" y="48" width="12" height="10" fill="#78909C"/>
  <rect x="50" y="48" width="12" height="10" fill="#78909C"/>
</svg>